<svg width="1920" height="1080" viewBox="0 0 1920 1080" fill="none" xmlns="http://www.w3.org/2000/svg"><g clip-path="url(#clip0_3959_31353)"><rect width="1920" height="1080" fill="url(#paint0_radial_3959_31353)"/><g opacity=".15" filter="url(#filter0_f_3959_31353)"><ellipse rx="346.044" ry="138.506" transform="matrix(-0.995683 -0.0928218 -0.123066 0.992398 1321.6 624.571)" fill="#6366f1"/></g><g opacity=".15" filter="url(#filter1_f_3959_31353)"><ellipse rx="420.946" ry="242.503" transform="matrix(-0.998433 -0.0559618 -0.0743519 0.997232 1481.81 350.389)" fill="#fff"/></g><path opacity=".8" fill-rule="evenodd" clip-rule="evenodd" d="M2537 592.5C2537 592.224 2536.78 592 2536.5 592h-904C1592.46 592 1560 624.459 1560 664.5v540C1560 1204.78 1560.22 1205 1560.5 1205S1561 1204.78 1561 1204.5v-540C1561 625.012 1593.01 593 1632.5 593h904C2536.78 593 2537 592.776 2537 592.5z" fill="url(#paint1_linear_3959_31353)"/><path opacity=".65" fill-rule="evenodd" clip-rule="evenodd" d="M2540 534.5C2540 534.224 2539.78 534 2539.5 534h-946C1541.31 534 1499 576.309 1499 628.5v565C1499 1193.78 1499.22 1194 1499.5 1194S15e2 1193.78 15e2 1193.5v-565C15e2 576.861 1541.86 535 1593.5 535h946C2539.78 535 2540 534.776 2540 534.5z" fill="url(#paint2_linear_3959_31353)"/><path opacity=".5" fill-rule="evenodd" clip-rule="evenodd" d="M2553 467.5C2553 467.224 2552.78 467 2552.5 467h-1008C1482.37 467 1432 517.368 1432 579.5v604C1432 1183.78 1432.22 1184 1432.5 1184S1433 1183.78 1433 1183.5v-604C1433 517.92 1482.92 468 1544.5 468h1008C2552.78 468 2553 467.776 2553 467.5z" fill="url(#paint3_linear_3959_31353)"/><path opacity=".3" fill-rule="evenodd" clip-rule="evenodd" d="M2557 393.5C2557 393.224 2556.78 393 2556.5 393h-1072c-70.97.0-128.5 57.531-128.5 128.5v652C1356 1173.78 1356.22 1174 1356.5 1174S1357 1173.78 1357 1173.5v-652C1357 451.084 1414.08 394 1484.5 394h1072C2556.78 394 2557 393.776 2557 393.5z" fill="url(#paint4_linear_3959_31353)"/><path opacity=".2" fill-rule="evenodd" clip-rule="evenodd" d="M2557 303.5C2557 303.224 2556.78 303 2556.5 303h-1164C1319.32 303 1260 362.322 1260 435.5v728C1260 1163.78 1260.22 1164 1260.5 1164S1261 1163.78 1261 1163.5v-728C1261 362.875 1319.87 304 1392.5 304h1164C2556.78 304 2557 303.776 2557 303.5z" fill="url(#paint5_linear_3959_31353)"/><g clip-path="url(#clip1_3959_31353)"><path d="M-.962993 1080H-1.6051-.962993zm1.123545.0L524.733 1066.52C524.893 1071.01 524.893 1075.51 524.893 1080H.739098e-4.160552zm-.963067.0H-.962993-1.6051-.802515zm.64211.0H.739098e-4.160552.321129.481608L520.399 1012.29C521.522 1021.27 522.485 1030.42 523.288 1039.57L.321129 1080H.160552-.160405-.642036-.160405zM510.446 957.895C512.533 966.88 514.459 975.865 516.225 984.851L.481608 1079.84 510.446 957.895zM-.160405 1080H.160552.321129-.160405zM494.716 904.784C497.766 913.449 500.655 922.274 503.223 931.099L.321129 1079.84 494.716 904.784zM473.688 853.76C477.701 862.104 481.393 870.447 484.924 878.951L.481608 1079.68 473.688 853.76zM.739098e-4 1080H.160552.739098e-4zM447.363 805.464C452.179 813.326 456.673 821.188 461.168 829.211L.642184 1079.84 447.363 805.464zM.739098e-4 1080 .160552 1079.84.739098e-4 1080zM.160552 1080 416.223 760.376C421.841 767.596 427.138 774.977 432.274 782.519L.321129 1079.84.160552 1080zm-.1604780902.0L380.748 718.818C387.008 725.397 393.108 732.136 399.047 739.196L.739098e-4 1080zM.739098e-4 1079.84 341.1 681.112C348.003 687.049 354.744 693.146 361.486 699.404L.739098e-4 1079.84zm0 0V1079.68L297.6 647.898C305.144 653.032 312.528 658.488 319.751 663.943L.739098e-4 1079.84zM.160552 1079.52 250.889 619.016C258.915 623.348 266.941 628.002 274.646 632.815L.160552 1079.52zM200.968 595.269C209.476 598.799 217.823 602.489 226.17 606.501L.739098e-4 1079.52 200.968 595.269zm-52.007-18.452C157.789 579.384 166.618 582.272 175.285 585.321L.160552 1079.36 148.961 576.817zM.739098e-4 1080V1079.84 1080zM95.1871 563.981C104.337 565.585 113.326 567.511 122.154 569.757L.160552 1079.52 95.1871 563.981zM.739098e-4 1080V1079.84 1080zm0 0V1079.84 1079.68L40.7716 556.921C49.9211 557.562 58.9101 558.525 68.0596 559.809L.321129 1079.52V1079.68 1079.84L.739098e-4 1080zm0 0V555.316C4.49457 555.316 8.98911 555.316 13.4836 555.477L.739098e-4 1079.84V1080zm0-524.684V1080H-.160405-.642036-.802515-.962993-1.6051V555.316H.739098e-4zM.160552 1080 524.733 1066.52l465.34-12.03C990.234 1062.99 990.395 1071.5 990.395 1080H.739098e-4.160552zm-.963067.0H-.962993-1.6051-.802515zm.64211.0H.739098e-4.160552.321129.481608L520.559 1012.13l461.489-60.172C984.295 968.966 986.061 986.135 987.345 1003.3L523.288 1039.24.321129 1080H.160552-.160405-.642036-.160405zM.481608 1079.84 510.446 957.895 963.107 849.588C967.119 866.436 970.811 883.444 973.861 900.613L516.065 984.851.481608 1079.84zM-.160405 1080H.739098e-4-.160405zM494.716 904.784 933.571 749.465C939.35 765.831 944.807 782.358 949.623 799.045l-446.4 132.054L.321129 1079.84 494.716 904.784zM.739098e-4 1080H.160552.739098e-4zM473.688 853.76 893.602 653.193C901.147 668.757 908.209 684.642 914.791 700.848L484.764 879.112.321129 1079.84 473.688 853.76zM447.363 805.464 844.002 562.055C852.991 576.817 861.659 591.739 870.006 606.982L.481608 1079.84 447.363 805.464zM.739098e-4 1080 .160552 1079.84.739098e-4 1080zM.160552 1080 416.223 760.376l369.19-283.522c10.434 13.639 20.547 27.598 30.499 41.718L432.435 782.519.481608 1079.84.160552 1080zm0 0L380.748 718.818 718.317 398.392c11.878 12.516 23.275 25.191 34.511 38.349L399.047 739.036.160552 1080zM.739098e-4 1079.84 341.1 681.112l302.416-353.64C656.678 338.703 669.359 350.096 681.879 361.969L361.326 699.404.739098e-4 1079.84zm0 0V1079.68L297.6 647.898 561.652 264.574C575.938 274.361 589.742 284.47 603.386 295.06L319.751 664.104.739098e-4 1079.84zM.160552 1079.52 473.206 210.34C488.456 218.684 503.384 227.348 518.151 236.334L274.485 632.815.160552 1079.52zM200.968 595.269 379.303 165.413C395.355 172.152 411.247 179.212 426.977 186.593L226.33 606.501.160552 1079.52 200.968 595.269zm-52.007-18.452L280.906 130.595C297.6 135.569 314.294 140.864 330.506 146.64L175.125 585.321.739098e-4 1079.36 148.961 576.817zM.739098e-4 1080V1079.84 1080zM.160552 1079.52 95.1871 563.981 179.459 106.366c17.175 3.209 34.19 6.739 51.045 10.751L122.154 569.596.160552 1079.52zM.739098e-4 1080V1079.84 1080zm0 0V1079.84 1079.68L40.7716 556.921 76.7275 92.8882C93.9029 94.1718 111.078 96.0972 128.093 98.1831L67.8991 559.648.739098e-4 1079.52V1079.68 1079.84 1080zm0 0V90C8.50751 90 17.015 90.1605 25.5224 90.3209L13.4836 555.477.739098e-4 1079.84V1080zm0-990v990H-.160405-.642036-.802515-.962993-1.6051V90H.739098e-4z" fill="url(#paint6_radial_3959_31353)"/></g></g><defs><filter id="filter0_f_3959_31353" x="626.616" y="133.383" width="1389.96" height="982.377" filterUnits="userSpaceOnUse" color-interpolation-filters="sRGB"><feFlood flood-opacity="0" result="BackgroundImageFix"/><feBlend mode="normal" in="SourceGraphic" in2="BackgroundImageFix" result="shape"/><feGaussianBlur stdDeviation="175" result="effect1_foregroundBlur_3959_31353"/></filter><filter id="filter1_f_3959_31353" x="611.131" y="-342.604" width="1741.36" height="1385.99" filterUnits="userSpaceOnUse" color-interpolation-filters="sRGB"><feFlood flood-opacity="0" result="BackgroundImageFix"/><feBlend mode="normal" in="SourceGraphic" in2="BackgroundImageFix" result="shape"/><feGaussianBlur stdDeviation="225" result="effect1_foregroundBlur_3959_31353"/></filter><radialGradient id="paint0_radial_3959_31353" cx="0" cy="0" r="1" gradientUnits="userSpaceOnUse" gradientTransform="translate(1407.5 339.12) rotate(-48.9169) scale(2477.35 1281.77)"><stop stop-color="#6387f1" stop-opacity=".1"/><stop offset=".524709" stop-color="#da46ef" stop-opacity=".05"/><stop offset="1" stop-color="#6387f1" stop-opacity=".1"/></radialGradient><linearGradient id="paint1_linear_3959_31353" x1="2537" y1="899.967" x2="1560" y2="899.967" gradientUnits="userSpaceOnUse"><stop stop-color="#6366f1"/><stop offset=".5" stop-color="#8b5cf6"/><stop offset="1" stop-color="#d946ef"/></linearGradient><linearGradient id="paint2_linear_3959_31353" x1="2540" y1="865.579" x2="1499" y2="865.579" gradientUnits="userSpaceOnUse"><stop stop-color="#6366f1"/><stop offset=".5" stop-color="#8b5cf6"/><stop offset="1" stop-color="#d946ef"/></linearGradient><linearGradient id="paint3_linear_3959_31353" x1="2553" y1="827.215" x2="1432" y2="827.215" gradientUnits="userSpaceOnUse"><stop stop-color="#6366f1"/><stop offset=".5" stop-color="#8b5cf6"/><stop offset="1" stop-color="#d946ef"/></linearGradient><linearGradient id="paint4_linear_3959_31353" x1="2557" y1="785.369" x2="1356" y2="785.369" gradientUnits="userSpaceOnUse"><stop stop-color="#6366f1"/><stop offset=".5" stop-color="#8b5cf6"/><stop offset="1" stop-color="#d946ef"/></linearGradient><linearGradient id="paint5_linear_3959_31353" x1="2557" y1="735.56" x2="1260" y2="735.56" gradientUnits="userSpaceOnUse"><stop stop-color="#6366f1"/><stop offset=".5" stop-color="#8b5cf6"/><stop offset="1" stop-color="#d946ef"/></linearGradient><radialGradient id="paint6_radial_3959_31353" cx="0" cy="0" r="1" gradientUnits="userSpaceOnUse" gradientTransform="translate(-34.798 1138.81) rotate(-46.0678) scale(1058.92 1061.02)"><stop stop-color="#6366f1" stop-opacity=".05"/><stop offset="1" stop-color="#fff" stop-opacity="0"/></radialGradient><clipPath id="clip0_3959_31353"><rect width="1920" height="1080" fill="#fff"/></clipPath><clipPath id="clip1_3959_31353"><rect width="992" height="990" fill="#fff" transform="matrix(-1 0 0 1 992 90)"/></clipPath></defs></svg>